<svg xmlns="http://www.w3.org/2000/svg" viewBox="0 0 512 512">
  <g fill="none" stroke="#F97317" stroke-linecap="round" stroke-linejoin="round">
    <path d="M214 171c0-25 19-46 42-46s42 21 42 46c0 14-5 25-18 35l126 70c26 14 54 31 54 72 0 19-15 34-34 34H86c-19 0-34-15-34-34 0-41 28-58 54-72l126-70c-13-10-18-21-18-35Z" stroke-width="22"/>
    <path d="M287 226c-14-12-37-17-57-8-17 7-27 21-25 36 2 13 13 24 33 29l30 8c31 7 45 23 44 45-1 30-28 52-66 53-24 1-46-5-63-18" stroke-width="20"/>
  </g>
</svg>
